<?xml version="1.0" standalone="no"?>
<!DOCTYPE svg PUBLIC "-//W3C//DTD SVG 1.1//EN" "http://www.w3.org/Graphics/SVG/1.1/DTD/svg11.dtd" >
<svg xmlns="http://www.w3.org/2000/svg">
<metadata>Generated by IcoMoon</metadata>
<defs>
<font id="icomoon" horiz-adv-x="512">
<font-face units-per-em="512" ascent="480" descent="-32" />
<missing-glyph horiz-adv-x="512" />
<glyph unicode="&#x20;" d="" horiz-adv-x="256" />
<glyph unicode="&#xe600;" d="M229.31 250.912c63.262 0 114.536 51.29 114.536 114.536 0.016 63.262-51.259 114.552-114.536 114.552s-114.52-51.291-114.52-114.552c0-63.246 51.258-114.536 114.52-114.536zM458.556 137.753c-0.745 62.596-51.671 113.159-114.473 113.159h-40.649l-74.093-105.748-74.093 105.748h-40.253c-62.786 0-113.728-50.546-114.473-113.159h-0.522v-169.77h458.603v169.769h-0.048z" horiz-adv-x="459" />
<glyph unicode="&#xe601;" d="M187.783 415.601l29.422-20.598-100.621-143.728-29.421 20.597 100.621 143.729zM191.947 115.157c0-16.773-13.597-30.37-30.37-30.37s-30.37 13.597-30.37 30.37c0 16.773 13.597 30.37 30.37 30.37s30.37-13.597 30.37-30.37zM268.289 115.157c0-16.773-13.597-30.37-30.37-30.37s-30.37 13.597-30.37 30.37c0 16.773 13.597 30.37 30.37 30.37s30.37-13.597 30.37-30.37zM151.531 189.252c0-16.773-13.597-30.37-30.37-30.37s-30.37 13.597-30.37 30.37c0 16.773 13.597 30.37 30.37 30.37s30.37-13.597 30.37-30.37zM385.048 189.252c0-16.773-13.597-30.37-30.37-30.37s-30.37 13.597-30.37 30.37c0 16.773 13.597 30.37 30.37 30.37s30.37-13.597 30.37-30.37zM229.376 189.252c0-16.777-13.601-30.377-30.377-30.377s-30.377 13.601-30.377 30.377c0 16.777 13.601 30.377 30.377 30.377s30.377-13.601 30.377-30.377zM400.621 354.146c-61.509 0-111.379-49.899-111.379-111.401 0-61.534 49.863-111.382 111.379-111.382s111.379 49.863 111.379 111.379c0 61.517-49.863 111.404-111.379 111.404zM456.314 226.763h-40.214v-39.661h-31.432v39.661h-39.759v31.432h39.759v40.254h31.432v-40.254h40.214v-31.432zM400.621 113.416c-7.601 0-14.977 0.687-22.202 1.937-7.752-18.741-15.050-36.2-19.497-47.034h-241.988c-12.25 29.423-45.13 108.605-53.035 127.769-10.809 26.266-20.432 41.442-45.683 56.326l-18.218-30.97c16.744-9.844 21.852-17.593 30.684-39.026 9.739-23.697 57.654-138.946 57.654-138.946l4.599-11.068h289.939l4.606 11.068c0 0 14.678 35.423 29.445 70.988-5.306-0.658-10.765-1.044-16.306-1.044zM332.927 352.911l-43.064 62.571-29.589-20.345 44.87-65.212c8.128 8.887 17.477 16.628 27.784 22.986zM292.706 215.12c2.937-11.513 7.683-22.271 13.882-32.046 0.43 1.99 0.65 4.050 0.65 6.159-0.018 10.971-5.841 20.537-14.533 25.887zM273.426 219.416c-15.154-1.731-26.956-14.526-26.956-30.178 0-16.751 13.608-30.37 30.381-30.37 7.474 0 14.36 2.771 19.644 7.247-11.43 15.519-19.474 33.635-23.069 53.301zM315.544 145.458c-0.43 0.018-0.841 0.087-1.279 0.087-16.755 0-30.363-13.623-30.363-30.392 0-16.748 13.623-30.366 30.363-30.366 16.784 0 30.392 13.601 30.392 30.366 0 4.414-0.957 8.591-2.648 12.373-9.591 4.892-18.456 10.924-26.465 17.932z" />
<glyph unicode="&#xe602;" d="M116.507 251.264l-29.421 20.606 100.676 143.74 29.421-20.606-100.676-143.74zM400.618 354.149c-61.513 0-111.375-49.899-111.375-111.401 0-61.531 49.863-111.379 111.375-111.379 61.517 0 111.382 49.863 111.382 111.379 0 61.524-49.866 111.401-111.382 111.401zM456.31 226.767h-40.207v-39.664h-31.432v39.665h-39.752v31.435h39.752v40.254h31.432v-40.261h40.207v-31.429zM332.923 352.918l-43.067 62.575-29.593-20.353 44.881-65.215c8.125 8.89 17.47 16.639 27.78 22.993zM400.618 113.416c-7.572 0-14.977 0.687-22.202 1.94-7.752-18.741-15.060-36.23-19.507-47.038h-241.973c-12.246 29.423-45.134 108.608-53.031 127.772-10.812 26.306-20.432 41.442-45.676 56.326l-18.229-30.97c16.744-9.851 21.852-17.593 30.684-39.029 9.739-23.661 57.654-138.953 57.654-138.953l4.599-11.065h289.95l4.595 11.065c0 0 14.678 35.423 29.445 70.992-5.303-0.65-10.762-1.041-16.31-1.041z" />
<glyph unicode="&#xe603;" d="M0 415.991h73.603v-384.011h-73.603v384.011zM121.231 415.991h36.782v-384.011h-36.782v384.011zM183.025 415.991h18.402v-384.011h-18.402v384.011zM227.458 415.991h73.59v-384.011h-73.589v384.011zM323.56 415.991h36.8v-384.011h-36.8v384.011zM391.525 415.991h18.427v-384.011h-18.427v384.011zM475.207 415.991h36.803v-384.011h-36.803v384.011z" />
<glyph unicode="&#xe604;" d="M176.363 122.281c0-17.231-13.969-31.2-31.201-31.2s-31.201 13.969-31.201 31.2c0 17.231 13.969 31.2 31.201 31.2s31.201-13.969 31.201-31.2zM336.265 122.277c0-17.229-13.967-31.197-31.197-31.197s-31.197 13.967-31.197 31.197c0 17.229 13.967 31.197 31.197 31.197s31.197-13.967 31.197-31.197zM256.315 122.277c0-17.229-13.968-31.197-31.197-31.197s-31.197 13.967-31.197 31.197c0 17.229 13.968 31.197 31.197 31.197s31.197-13.967 31.197-31.197zM261.281 318.574c0-17.232-13.969-31.2-31.201-31.2s-31.201 13.969-31.201 31.2c0 17.232 13.969 31.2 31.201 31.2s31.201-13.969 31.201-31.2zM403.373 388.183c0-17.231-13.969-31.201-31.2-31.201s-31.2 13.969-31.2 31.201c0 17.231 13.969 31.201 31.2 31.201s31.2-13.969 31.2-31.201zM299.404 205.147c0-17.226-13.964-31.19-31.19-31.19s-31.19 13.964-31.19 31.19c0 17.226 13.964 31.19 31.19 31.19s31.19-13.964 31.19-31.19zM386.478 28.617h-326.825l-59.653 204.168 36.142 10.595 51.737-177.086h269.97c10.685 38.472 40.499 146.12 48.342 176.497 11.856 45.983 40.702 77.574 90.806 99.328l15.002-34.546c-39.115-16.96-60.498-39.87-69.327-74.207-9.635-37.371-50.596-184.712-52.305-190.958l-3.89-13.793z" />
<glyph unicode="&#xe605;" d="M116.54 251.281l-29.421 20.608 100.659 143.699 29.421-20.608-100.659-143.699zM191.947 115.161c0-16.773-13.597-30.37-30.37-30.37s-30.37 13.597-30.37 30.37c0 16.773 13.597 30.37 30.37 30.37s30.37-13.597 30.37-30.37zM268.289 115.161c0-16.773-13.597-30.37-30.37-30.37s-30.37 13.597-30.37 30.37c0 16.773 13.597 30.37 30.37 30.37s30.37-13.597 30.37-30.37zM151.531 189.252c0-16.773-13.597-30.37-30.37-30.37s-30.37 13.597-30.37 30.37c0 16.773 13.597 30.37 30.37 30.37s30.37-13.597 30.37-30.37zM229.376 189.255c0-16.777-13.601-30.377-30.377-30.377s-30.377 13.601-30.377 30.377c0 16.777 13.601 30.377 30.377 30.377s30.377-13.601 30.377-30.377zM400.621 113.419c-7.601 0-14.977 0.69-22.202 1.937-7.752-18.741-15.050-36.23-19.497-47.038h-241.988c-12.243 29.427-45.13 108.608-53.027 127.772-10.816 26.298-20.428 41.439-45.676 56.326l-18.232-30.977c16.744-9.851 21.859-17.592 30.688-39.033 9.739-23.654 57.654-138.946 57.654-138.946l4.595-11.068h289.939l4.591 11.068c0 0 14.699 35.428 29.478 71.002-5.325-0.65-10.783-1.044-16.325-1.044zM332.927 352.914l-43.064 62.572-29.589-20.352 44.87-65.212c8.128 8.89 17.477 16.639 27.784 22.993zM292.706 215.124c2.937-11.51 7.683-22.271 13.882-32.039 0.43 1.99 0.65 4.050 0.65 6.156-0.018 10.964-5.841 20.533-14.533 25.883zM273.426 219.43c-15.154-1.731-26.956-14.551-26.956-30.178 0-16.765 13.608-30.366 30.381-30.366 7.481 0 14.36 2.771 19.644 7.279-11.43 15.469-19.474 33.592-23.069 53.266zM315.533 145.466c-0.419 0.018-0.838 0.079-1.279 0.079-16.755 0-30.363-13.623-30.363-30.392 0-16.751 13.623-30.363 30.363-30.363 16.784 0 30.392 13.598 30.392 30.363 0 4.414-0.968 8.598-2.659 12.377-9.57 4.895-18.445 10.928-26.454 17.936zM400.621 354.146c-61.509 0-111.379-49.899-111.379-111.397 0-61.535 49.863-111.369 111.379-111.369s111.379 49.863 111.379 111.368c0 61.524-49.863 111.397-111.379 111.397zM391.211 187.749l-56.159 56.159 25.399 25.399 30.771-30.756 55.166 55.166 25.403-25.406-80.579-80.562z" />
<glyph unicode="&#xe606;" d="M464.301 418.682h-312.188c-26.306 0-47.703-21.4-47.703-47.667v-23.972h35.77v23.969c0 6.556 5.339 11.928 11.928 11.928h312.188c6.582 0 11.928-5.343 11.928-11.928v-185.102c0-6.607-5.343-11.95-11.928-11.95h-20.898v-35.767h20.898c26.291 0 47.699 21.4 47.699 47.717v185.077c0.003 26.295-21.404 47.695-47.695 47.695zM359.89 309.788h-312.188c-26.302 0-47.703-21.379-47.703-47.699v-185.063c0-26.303 21.4-47.699 47.703-47.699h312.188c26.303 0 47.699 21.397 47.699 47.699v185.063c0 26.31-21.397 47.699-47.699 47.699zM47.703 274.018h312.185c6.582 0 11.928-5.325 11.928-11.929v-21.14h-336.041v21.14c0 6.589 5.339 11.928 11.928 11.928zM359.89 65.088h-312.188c-6.589 0-11.932 5.343-11.932 11.932v104.281h336.034v-104.248c0.014-6.625-5.332-11.964-11.914-11.964z" />
<glyph unicode="&#xe607;" d="M481.526 302.6c-9.010 23.412-36.652 42.395-61.766 42.395h-50.531v68.788h-369.228v-333.115h71.444c7.857-26.866 32.609-46.452 61.994-46.452 29.369 0 54.103 19.612 61.975 46.452h116.831c7.861-26.866 32.588-46.452 61.993-46.452 29.362 0 54.108 19.612 61.939 46.452h30.363c25.089 0 45.43 20.338 45.43 45.43v97.457l-30.442 79.044zM133.411 66.75c-17.698 0-32.118 14.392-32.118 32.129 0 17.687 14.385 32.075 32.118 32.075 17.686 0 32.086-14.389 32.086-32.075 0-17.737-14.392-32.129-32.086-32.129zM374.2 66.75c-17.687 0-32.089 14.392-32.089 32.129 0 17.687 14.392 32.075 32.089 32.075 17.69 0 32.082-14.389 32.082-32.075 0-17.737-14.392-32.129-32.082-32.129zM475.615 126.091c0-5.043-4.064-9.107-9.086-9.107h-30.366c-7.857 26.812-32.595 46.435-61.971 46.435-29.38 0-54.111-19.627-61.99-46.435h-116.812c-7.857 26.812-32.588 46.435-61.947 46.435-29.412 0-54.114-19.627-61.986-46.435h-35.113v260.45h296.528v-68.788h86.891c10.14 0 24.185-9.645 27.834-19.113l28.011-72.744 0.007-90.698z" />
<glyph unicode="&#xe608;" d="M474.142 78.877h-436.279v80.648c-23.080 12.878-37.862 37.404-37.862 64.475s14.782 51.601 37.862 64.486v80.637h436.279v-80.633c23.105-12.871 37.858-37.404 37.858-64.486 0-27.068-14.782-51.596-37.858-64.478v-80.648zM73.879 114.897h364.243v69.135l12.195 4.158c15.349 5.231 25.663 19.627 25.663 35.81 0 16.188-10.313 30.587-25.666 35.821l-12.192 4.158v69.125h-364.243v-69.132l-12.192-4.165c-15.353-5.235-25.663-19.645-25.663-35.818 0-16.188 10.31-30.583 25.663-35.814l12.195-4.158-0.004-69.12zM213.724 229.939c-20.23 0-36.688 16.469-36.688 36.673 0 20.244 16.483 36.685 36.688 36.685s36.673-16.483 36.673-36.685c0-20.233-16.451-36.673-36.673-36.673zM213.724 283.204c-9.147 0-16.603-7.441-16.603-16.603s7.441-16.585 16.603-16.585c9.121 0 16.581 7.423 16.581 16.585s-7.441 16.603-16.581 16.603zM297.106 146.546c-20.226 0-36.673 16.483-36.673 36.685s16.469 36.67 36.673 36.67c9.8 0 19.041-3.84 25.941-10.762 6.965-6.933 10.762-16.147 10.762-25.945-0.022-20.19-16.476-36.649-36.702-36.649zM297.106 199.815c-9.143 0-16.585-7.442-16.585-16.585 0-9.151 7.423-16.603 16.585-16.603s16.603 7.438 16.603 16.603c0 4.414-1.731 8.576-4.858 11.719-3.147 3.139-7.315 4.866-11.744 4.866zM199.882 155.131l-14.22 14.207 125.251 125.375 14.221-14.207-125.251-125.375z" />
<glyph unicode="&#xe609;" d="M469.301 378.967c-3.649 3.605-7.452 6.853-11.296 10.010l-2.221-44.299c22.209-26.754 28.846-54.92 18.987-64.948-2.915-2.937-7.474-4.44-13.623-4.534-18.008-0.138-42.522 12.441-62.419 32.057-11.293 11.141-19.709 23.012-25.255 34.098 8.497 10.823 7.662 26.493-2.334 36.352-10.787 10.628-28.152 10.487-38.779-0.278-10.606-10.762-10.462-28.137 0.293-38.758 2.522-2.486 5.411-4.346 8.493-5.657 7.102-16.744 18.716-33.798 34.394-49.296 26.638-26.266 58.757-41.774 85.889-41.576 14.977 0.087 27.772 5.069 36.952 14.374 26.251 26.743 13.503 80.514-29.080 122.455zM394.747 247.163c-1.654-3.305-3.688-6.347-5.798-8.486l-190.806-190.821-153.984 153.981 190.796 190.824c4.877 4.834 14.359 9.223 21.147 9.743l131.161 10.635c11.411-0.227 20.901-9.641 21.187-21.057l-4.884-65.53c2.16-2.514 4.385-4.981 6.709-7.366 7.572-7.553 15.356-13.471 22.693-17.86l6.553 88.429 0.094 1.546-0.054 1.539c-0.697 28.372-23.459 50.971-51.832 51.499l-1.557 0.076-1.546-0.112-131.165-10.643c-14.24-1.13-30.615-8.724-40.716-18.817l-212.744-212.907 198.147-198.143 22.050 22.087 190.821 190.81c4.454 4.44 8.359 10.162 11.517 16.371-9.324 3.595-18.666 8.367-27.787 14.201zM197.066 257.285c-13.887 13.883-13.89 36.5 0 50.376 13.919 13.872 36.5 13.872 50.365 0 13.89-13.887 13.89-36.5 0-50.38s-36.475-13.882-50.365 0.003zM233.639 293.846c-6.246 6.279-16.483 6.275-22.773 0-6.246-6.26-6.246-16.483 0-22.755 6.282-6.279 16.494-6.279 22.769 0 6.282 6.271 6.282 16.483 0.004 22.755zM197.066 142.792c-13.887 13.923-13.887 36.504 0 50.38 13.919 13.882 36.5 13.882 50.365 0 6.73-6.697 10.461-15.667 10.461-25.183 0-9.519-3.703-18.459-10.462-25.179-13.887-13.894-36.475-13.894-50.365-0.018zM233.639 179.368c-6.246 6.275-16.483 6.275-22.773 0-6.246-6.246-6.246-16.483 0-22.755 6.282-6.246 16.494-6.246 22.769 0 3.074 3.020 4.743 7.066 4.743 11.383-0.025 4.281-1.698 8.334-4.739 11.372zM136.244 234.978h172.021v-19.514h-172.022v19.514z" />
<glyph unicode="&#xe60a;" d="M474.142 78.877h-436.279v80.648c-23.080 12.878-37.862 37.404-37.862 64.475s14.782 51.601 37.862 64.486v80.637h436.279v-80.633c23.105-12.871 37.858-37.404 37.858-64.486 0-27.068-14.782-51.596-37.858-64.478v-80.648zM73.879 114.897h364.243v69.135l12.195 4.158c15.353 5.231 25.663 19.627 25.663 35.81 0 16.188-10.313 30.587-25.663 35.821l-12.195 4.158v69.125h-364.243v-69.132l-12.192-4.165c-15.353-5.235-25.663-19.645-25.663-35.818 0-16.188 10.31-30.583 25.663-35.814l12.195-4.158-0.004-69.12zM310.895 208.777c-1.13 3.775-3.389 7.572-6.849 11.404-3.389 3.829-8.656 7.228-15.728 10.238-7.058 3.006-16.169 5.701-27.227 8.048v19.796c4.711-1.059 7.944-2.421 9.652-4.067 1.709-1.655 2.796-4.743 3.269-9.194h33.769c0 9.194-2.207 16.942-6.629 23.34-4.421 6.361-10.050 10.913-16.885 13.698-6.849 2.771-14.555 4.14-23.174 4.14v14.161h-9.19v-14.143c-5.762 0-11.365-0.827-16.787-2.486-5.423-1.633-10.462-4.049-15.205-7.228-4.714-3.183-8.486-7.514-11.333-13.019-2.825-5.494-4.223-11.683-4.223-18.669 0-9.313 2.59-16.263 7.778-20.847 5.184-4.599 13.395-8.836 24.576-12.726 2.138-0.827 5.065-1.731 8.836-2.742 3.79-1 5.91-1.564 6.369-1.68v-24.911c-9.786 0.687-14.678 6.42-14.678 17.152h-37.822c0.256-6.011 1.401-11.647 3.464-16.885 2.063-5.245 5.097-10.010 9.107-14.324 3.992-4.303 9.411-7.691 16.263-10.18 6.842-2.478 14.732-3.688 23.69-3.688v-17.524h9.19v17.535c8.955 0 16.885 1.214 23.781 3.627 6.892 2.413 12.286 5.647 16.18 9.711 3.858 4.067 6.777 8.399 8.656 13.019 1.893 4.591 2.839 9.407 2.839 14.497-0.011 5.52-0.575 10.18-1.69 13.947zM251.929 240.613c-8.356 1.629-12.554 4.808-12.554 9.559 0 5.418 4.169 8.15 12.553 8.15v-17.708zM261.123 181.911v22.44c5.184-1.604 8.93-3.251 11.224-4.916 2.301-1.654 3.464-3.887 3.464-6.719-0.014-6.39-4.906-9.985-14.688-10.805z" />
<glyph unicode="&#xe60b;" d="M438.909 315.026v75.056h-438.909v-257.127h73.094v-75.034h438.906v257.106h-73.091zM36.157 353.929h366.591v-184.827h-366.591v184.827zM475.829 94.063h-366.591v38.892h329.665v145.921h36.952c-0.026 0-0.026-184.813-0.026-184.813zM71.541 279.599h75.721v-36.172h-75.721v36.172zM291.647 279.599h75.721v-36.172h-75.721v36.172zM264.825 253.796c-0.899 3.020-2.716 6.080-5.491 9.132-2.742 3.067-6.933 5.794-12.572 8.204-5.665 2.395-12.933 4.555-21.801 6.441v15.848c3.764-0.827 6.344-1.933 7.713-3.237 1.369-1.322 2.239-3.772 2.619-7.362h27.043c0 7.362-1.781 13.598-5.307 18.687-3.54 5.097-8.052 8.75-13.525 10.975-5.473 2.214-11.661 3.323-18.547 3.323v11.325h-7.358v-11.325c-4.627 0-9.111-0.679-13.453-1.983-4.335-1.322-8.385-3.255-12.16-5.795-3.768-2.554-6.795-6.018-9.056-10.422-2.258-4.382-3.392-9.353-3.392-14.938 0-7.46 2.070-13.019 6.225-16.704 4.155-3.688 10.744-7.066 19.666-10.194 1.694-0.668 4.057-1.394 7.077-2.196 3.020-0.798 4.718-1.239 5.097-1.311v-19.966c-7.839 0.575-11.751 5.144-11.751 13.742h-30.298c0.191-4.815 1.095-9.327 2.749-13.507 1.655-4.19 4.082-8.048 7.297-11.491 3.237-3.432 7.543-6.152 13.019-8.135 5.473-1.976 11.794-2.973 18.969-2.973v-14.017h7.358v13.98c7.149 0 13.525 0.979 19.041 2.937 5.535 1.933 9.858 4.523 12.954 7.756 3.118 3.244 5.426 6.726 6.936 10.433 1.507 3.678 2.265 7.553 2.265 11.607 0.022 4.425-0.426 8.143-1.318 11.166zM217.607 279.281c-6.704 1.322-10.050 3.854-10.050 7.63 0 4.364 3.327 6.513 10.050 6.513v-14.142zM224.969 232.276v17.987c4.14-1.29 7.149-2.633 8.992-3.966 1.843-1.322 2.76-3.107 2.76-5.375-0.004-5.101-3.919-7.976-11.751-8.644z" />
<glyph unicode="&#xe60c;" d="M151.936 161.638l14.374 14.374c-7.369 7.377-12.85 14.887-16.429 22.553-3.595 7.655-5.27 14.905-5.025 21.75 0.227 6.839 1.666 13.247 4.292 19.244 2.633 6.025 6.3 11.596 11.065 16.751l31.082-31.129c-8.807-8.821-9.497-17.553-2.026-26.158l20.508 20.493c-0.296 0.517-1.583 2.688-3.844 6.607-2.294 3.927-3.959 7.106-5.032 9.559-6.007 12.401-9.258 22.635-9.718 30.648-0.513 8.052 3.085 15.899 10.762 23.557 5.726 5.715 11.997 9.674 18.835 11.838 6.849 2.182 13.5 2.633 19.999 1.391 6.488-1.279 12.643-3.442 18.463-6.549 5.795-3.085 11.079-7.001 15.858-11.78l11.625 11.636 7.601-7.554-11.658-11.632c7.058-7.084 12.283-14.569 15.627-22.476 3.341-7.904 4.202-16.31 2.608-25.19-1.582-8.861-6.181-17.076-13.745-24.611l-27.772 27.769c3.291 4.071 4.899 7.492 4.873 10.249-0.047 2.785-1.582 6.549-4.591 11.278l-16.296-16.288c7.178-11.065 12.438-20.71 15.786-29.008 3.338-8.276 4.841-15.407 4.501-21.378-0.354-5.946-1.608-10.953-3.779-14.966-2.182-4.028-5.563-8.349-10.115-12.871-4.169-4.14-8.927-7.377-14.24-9.591-5.343-2.211-11.278-3.396-17.82-3.54-6.549-0.148-13.651 1.633-21.31 5.31-7.648 3.699-15.143 9.212-22.502 16.574l-14.403-14.374-7.554 7.517zM215.334 209.923l-18.467-18.438c8.727-7.373 15.728-8.446 20.945-3.193 2.333 2.319 3.237 5.065 2.688 8.356-0.535 3.219-2.25 7.651-5.166 13.276zM237.595 247.3l14.525 14.526c-6.853 6.885-12.553 8.095-17.011 3.67-3.869-3.901-3.049-9.948 2.486-18.196zM469.947 378.627c-3.63 3.637-7.423 6.94-11.213 10.154l-2.565-44.329c22.018-26.923 28.43-55.151 18.507-65.089-2.937-2.941-7.586-4.44-13.673-4.44-18.022 0-42.439 12.77-62.199 32.53-11.235 11.231-19.572 23.171-24.998 34.304 8.503 10.765 7.842 26.443-2.099 36.392-10.755 10.715-28.083 10.708-38.798 0-10.697-10.703-10.704-28.069 0-38.79 2.51-2.486 5.39-4.379 8.438-5.719 6.976-16.784 18.438-33.957 34.048-49.591 26.44-26.443 58.471-42.229 85.608-42.229 15.017 0 27.83 4.892 37.078 14.125 26.494 26.508 14.132 80.402-28.134 122.683zM394.888 247.156c-1.661-3.294-3.688-6.355-5.809-8.504l-190.875-190.871-154.035 154.056 190.882 190.879c4.851 4.848 14.32 9.233 21.148 9.782l131.197 10.613c11.444-0.224 20.919-9.645 21.205-21.035l-4.892-65.555c2.175-2.514 4.414-4.974 6.737-7.358 7.601-7.557 15.356-13.467 22.712-17.86l6.567 88.454 0.094 1.539-0.043 1.583c-0.697 28.35-23.485 50.95-51.853 51.513l-1.575 0.033-1.557-0.123-131.197-10.624c-14.226-1.159-30.612-8.728-40.716-18.825l-212.878-213.034 198.204-198.201 212.965 212.962c4.462 4.45 8.381 10.162 11.517 16.379-9.338 3.583-18.669 8.359-27.798 14.197z" />
<glyph unicode="&#xe60d;" d="M125.317 253.371l-31.657 22.179 108.326 154.617 31.657-22.179-108.326-154.617zM386.402 253.482l-106.419 154.644 31.846 21.915 106.419-154.644-31.846-21.915zM411.946 17.834h-311.964l-4.898 11.911c0 0-51.557 124.095-62.036 149.538-9.547 23.029-15.032 31.367-33.047 41.952l19.645 33.325c27.166-16.011 37.493-32.306 49.144-60.606 8.49-20.548 43.884-105.82 57.040-137.472h260.385c13.16 31.652 48.558 116.888 57.044 137.482 11.65 28.289 21.978 44.621 49.144 60.596l19.644-33.325c-18.029-10.613-23.514-18.922-33.014-41.988-10.487-25.493-62.091-149.538-62.091-149.538l-4.996-11.874z" />
<glyph unicode="&#xe60e;" d="M474.145 78.877h-436.283v80.648c-23.080 12.878-37.862 37.404-37.862 64.475s14.782 51.601 37.862 64.486v80.637h436.279v-80.633c23.105-12.871 37.855-37.404 37.855-64.486 0-27.068-14.782-51.596-37.855-64.478l0.003-80.648zM73.879 114.897h364.247v69.135l12.195 4.158c15.349 5.231 25.663 19.627 25.663 35.81 0 16.188-10.313 30.587-25.663 35.821l-12.192 4.158v69.125h-364.25v-69.132l-12.192-4.165c-15.353-5.235-25.663-19.645-25.663-35.818 0-16.188 10.31-30.583 25.663-35.814l12.195-4.158-0.004-69.12zM310.631 286.572l-14.164-30.168c-7.98 5.195-15.764 7.781-23.358 7.781-11.56 0.003-19.93-6.098-24.947-18.344h45.308l-7.406-17.762h-41.109c-0.119-0.375-0.227-1.070-0.227-1.998v-4.79c0-0.932 0.083-1.582 0.227-2.002l37.707 0.003-7.38-17.759h-26.743c4.942-11.968 13.735-17.95 26.392-17.95 8.214 0 17.495 3.313 27.743 9.978v-37.1c-9.071-4.125-20.020-6.192-32.931-6.188-15.967-0.003-29.536 4.595-40.716 13.778-10.913 9.305-18.474 21.827-22.748 37.526h-15.581l7.387 17.748h5.585c-0.133 0.401-0.198 1.008-0.198 1.799v4.96c0 0.929 0.069 1.601 0.198 1.998h-13.369l7.399 17.762h8.572c4.118 15.833 11.816 28.408 23.116 37.721 11.44 9.447 25.15 14.161 41.117 14.161 12.514 0.018 25.887-3.707 40.127-11.156z" />
<glyph unicode="&#xe60f;" d="M438.935 315.038v75.059h-438.935v-257.138h73.087v-75.034h438.913v257.13l-73.065-0.018zM36.16 353.937h366.599v-184.824h-366.599v184.824zM475.858 94.057h-366.613v38.903h329.668v145.922h36.952l-0.007-184.824zM71.548 279.606h75.728v-36.157h-75.728v36.157zM291.662 279.606h75.724v-36.157h-75.724v36.157zM276.259 311.826l-11.387-24.16c-6.409 4.14-12.655 6.246-18.734 6.246-9.305 0-15.996-4.892-20.071-14.714h36.413l-5.928-14.244h-32.993c-0.108-0.318-0.195-0.845-0.195-1.596v-3.844c0-0.733 0.076-1.279 0.195-1.586l30.255 0.004-5.946-14.244h-21.44c3.952-9.606 10.989-14.395 21.14-14.395 6.621 0 14.045 2.659 22.271 8.012v-29.789c-7.257-3.309-16.076-4.985-26.433-4.985-12.814 0-23.702 3.688-32.671 11.065-8.76 7.459-14.826 17.517-18.257 30.11h-12.488l5.946 14.197h4.451c-0.076 0.304-0.159 0.798-0.159 1.43v4.035c0 0.74 0.076 1.279 0.159 1.596h-10.732l5.928 14.251h6.886c3.294 12.709 9.5 22.798 18.561 30.272 9.183 7.583 20.233 11.365 33.040 11.365 10.039-0.061 20.768-3.053 32.19-9.027z" />
<glyph unicode="&#xe610;" d="M322.133 234.924l-36.388-13.131c-2.334 10.827-6.564 19.356-12.791 25.58-9.541 9.548-21.375 11.354-35.597 5.418l37.222-37.223-20.667-8.522-33.776 33.791c-0.44-0.227-1.044-0.715-1.806-1.474l-1.803-1.806-2.127-2.124c-0.766-0.769-1.279-1.369-1.477-1.81l30.991-30.991-20.663-8.54-21.975 21.978c-5.794-13.887-3.5-26.021 6.886-36.413 6.777-6.774 17.108-11.643 30.999-14.591l-30.482-30.482c-10.827 4.050-21.573 11.365-32.147 21.971-13.117 13.117-20.497 28.047-22.137 44.776-1.315 16.632 2.727 33.123 12.142 49.526l-12.796 12.791 20.66 8.522 4.591-4.591c0.227 0.423 0.679 0.979 1.319 1.625l2.127 2.153 1.965 1.972c0.766 0.762 1.365 1.26 1.803 1.448l-10.996 10.982 20.692 8.529 7.019-7.051c16.393 9.627 33.069 13.622 50.047 11.971 17.163-1.637 32.288-9.017 45.391-22.137 10.277-10.274 18.2-24.326 23.777-42.15zM469.947 378.627c-3.634 3.634-7.416 6.947-11.213 10.162l-2.558-44.328c22.018-26.935 28.433-55.159 18.503-65.093-2.937-2.937-7.55-4.44-13.684-4.44-18.012 0-42.425 12.774-62.188 32.541-11.231 11.228-19.562 23.163-25.041 34.296 8.536 10.762 7.886 26.447-2.063 36.399-10.747 10.711-28.079 10.704-38.784 0-10.711-10.707-10.718-28.072 0-38.779 2.486-2.486 5.368-4.4 8.428-5.726 6.969-16.784 18.438-33.953 34.051-49.591 26.447-26.447 58.468-42.233 85.597-42.233 15.017 0 27.841 4.892 37.089 14.121 26.486 26.505 14.139 80.395-28.137 122.672zM394.877 247.167c-1.654-3.305-3.688-6.351-5.795-8.489l-190.886-190.907-154.035 154.057 190.886 190.882c4.848 4.844 14.316 9.226 21.148 9.779l131.208 10.642c11.43-0.227 20.916-9.678 21.198-21.064l-4.892-65.555c2.178-2.514 4.407-4.978 6.748-7.358 7.601-7.565 15.356-13.467 22.697-17.864l6.575 88.458 0.076 1.543-0.036 1.579c-0.693 28.357-23.478 50.957-51.842 51.517l-1.582 0.029-132.707-10.776c-14.244-1.159-30.63-8.728-40.716-18.825l-212.922-212.99 198.201-198.204 212.969 212.972c4.469 4.44 8.381 10.162 11.513 16.375-9.331 3.583-18.673 8.356-27.805 14.201z" />
<glyph unicode="&#xe611;" d="M64.005 480v-512h280.478l103.533 103.536v408.464h-384.011zM100.144 443.858h311.678v-356.567h-82.765v-83.162h-228.914v439.729zM136.756 328.465h239.701v-36.143h-239.701v36.142zM136.756 255.107h239.701v-36.139h-239.701v36.139zM136.756 181.752h239.701v-36.142h-239.701v36.142z" />
<glyph unicode="&#xe612;" d="M350.488 172.551l-12.589-12.567-47.692 47.666c26.425 28.976 42.577 67.43 42.577 109.653 0 89.697-73.007 162.697-162.741 162.697-89.73 0-162.726-73.001-162.726-162.73s72.993-162.752 162.726-162.752c34.723 0 66.913 10.967 93.364 29.579l49.325-49.313-12.582-12.567 154.208-154.208 50.351 50.354-154.219 154.19zM42.923 317.274c0 70.067 57.026 127.115 127.115 127.115 70.107 0 127.137-57.030 127.137-127.115 0-70.103-57.030-127.126-127.137-127.126-70.089-0.003-127.115 57.026-127.115 127.126z" />
<glyph unicode="&#xe613;" d="M131.157 181.113v82.855h26.114l24.16-44.329h0.227v44.328h24.16v-82.862h-24.835l-25.431 45.264h-0.253v-45.26l-24.142 0.003zM216.227 181.113v82.855h68.561v-21.216h-43.060v-10.332h39.115v-19.728h-39.101v-10.332h44.339v-21.238l-69.854-0.011zM400.986 263.968l-23.236-82.862h-24.821l-8.937 50.481h-0.245l-8.702-50.481h-24.94l-22.502 82.863h25.063l10.13-51.178h0.228l10 51.178h22.502l9.753-51.856h0.228l10.332 51.856h25.15zM256.011 433.389l38.823-39.274 52.038 18.521 11.156-32.508 6.781-19.728 20.743-2.182 34.17-3.684-6.495-54.822 46.886-29.109-18.438-29.012-11.213-17.589 29.651-46.579-46.886-29.127 2.453-20.739 4.043-34.094-54.913-5.877-6.781-19.717-11.156-32.508-52.045 18.539-38.808-39.278-38.838 39.278-52.055-18.539-17.932 52.225-20.703 2.189-34.178 3.688 4.010 34.094 2.486 20.739-46.925 29.127 29.654 46.579-11.202 17.589-18.453 29.012 46.937 29.109-2.486 20.703-4.010 34.12 54.88 5.866 6.774 19.728 11.195 32.509 52.023-18.521 14.678 14.832 24.139 24.442zM256.011 480l-47.464-48.024-63.601 22.675-21.906-63.864-67.162-7.167 7.947-67.050-57.37-35.594 36.236-56.972-36.236-56.958 57.38-35.597-7.962-67.058 67.138-7.196 21.928-63.85 63.597 22.654 47.464-48.035 47.46 48.035 63.608-22.654 21.924 63.85 67.137 7.196-7.94 67.058 57.355 35.597-36.243 56.965 36.243 56.972-57.355 35.594 7.94 67.058-67.13 7.149-21.924 63.876-63.608-22.654-47.457 47.995z" />
<glyph unicode="&#xe614;" d="M0 202.192l56.166-225.244 455.848 113.666-56.173 225.24-455.841-113.662zM80.32 17.169l-40.123 160.874 391.5 97.612 40.113-160.88-391.488-97.605zM130.916 83.486c-8.493 5.358-14.124 13.623-16.899 24.735-2.785 11.079-1.665 20.999 3.313 29.727 4.999 8.713 12.944 14.439 23.857 17.17 10.913 2.692 20.606 1.369 29.127-3.97 8.493-5.361 14.092-13.594 16.892-24.702 2.767-11.137 1.661-21.043-3.32-29.77-4.993-8.713-12.925-14.428-23.857-17.156-10.921-2.72-20.617-1.398-29.113 3.966zM135.225 123.902c-0.278-3.013 0.076-6.412 1.033-10.166 0.939-3.768 2.185-6.918 3.84-9.414 1.637-2.525 3.356-4.291 5.227-5.241 1.846-0.99 3.595-1.582 5.278-1.796 1.658-0.228 3.309-0.151 4.895 0.26 1.615 0.39 3.1 1.098 4.447 2.088 1.369 0.979 2.633 2.334 3.819 4.075 1.178 1.731 1.907 4.086 2.182 7.087 0.263 2.998-0.094 6.376-1.023 10.144-0.958 3.768-2.239 6.933-3.873 9.457-1.601 2.525-3.359 4.281-5.195 5.231-1.882 0.979-3.613 1.572-5.296 1.806-1.658 0.224-3.313 0.141-4.924-0.286-1.619-0.397-3.107-1.087-4.458-2.077-1.365-0.979-2.633-2.334-3.815-4.071-1.178-1.741-1.889-4.125-2.138-7.099zM203.042 92.070l-17.99 72.166 37.183 9.277c4.653 1.13 8.956 1.373 12.965 0.679 3.988-0.679 7.301-2.034 9.887-4.096 2.579-2.034 4.689-4.288 6.279-6.791 1.629-2.5 2.785-5.111 3.471-7.904 2.084-8.421 1.131-15.429-2.905-21.064-4.057-5.61-10.364-9.508-18.994-11.658l-13.131-3.284 5.444-21.808-22.209-5.516zM211.892 151.26l3.649-14.63 8.601 2.113c1.817 0.473 3.237 0.899 4.292 1.289 1.041 0.401 2.167 0.99 3.37 1.734 1.189 0.755 2.019 1.76 2.348 3.060 0.361 1.279 0.307 2.785-0.105 4.523-0.528 2.091-1.477 3.536-2.854 4.335-1.369 0.817-2.738 1.13-4.067 1.026-1.337-0.119-3.085-0.462-5.332-1.005l-9.901-2.445zM271.646 109.189l-17.983 72.137 59.692 14.89 4.606-18.445-37.49-9.399 2.243-8.955 34.058 8.493 4.262-17.17-34.033-8.503 2.243-8.995 38.603 9.623 4.616-18.492-60.819-15.183zM340.358 126.312l-17.986 72.148 22.755 5.69 30.63-33.368 0.216 0.076-9.638 38.61 21.007 5.241 17.986-72.163-21.599-5.394-31.985 33.889-0.192-0.062 9.815-39.401-21.010-5.267zM210.042 464.51c-7.38 4.429-15.523 6.542-23.557 6.542-15.523 0-30.695-7.904-39.274-22.202-13.019-21.661-6.011-49.776 15.656-62.839 7.376-4.436 15.508-6.535 23.549-6.535 15.519 0 30.695 7.922 39.282 22.228 13.008 21.664 6 49.779-15.656 62.806zM153.901 371.063c-1.622 0.968-3.165 2.034-4.653 3.125l-49.18-129.051 39.213 9.779 40.951 107.456c-9.262 0.911-18.279 3.847-26.331 8.691zM243.288 397.639c-0.827-1.705-1.708-3.316-2.644-4.931-4.858-8.121-11.491-14.909-19.19-20.020l86.623-75.677 39.213 9.779-104.002 90.849z" />
<glyph unicode="&#xe615;" d="M255.996 480l-200.047-109.323v-232.263l200.047-109.334 200.040 109.331v232.266l-200.040 109.323zM405.028 360.868l-149.031-81.435-149.031 81.435 149.028 81.447 149.035-81.447zM89.018 332.988l150.44-82.202v-174.98l-150.44 82.216v174.966zM272.531 75.81v174.972l150.44 82.201v-174.969l-150.44-82.205zM119.366 42.51l-63.42 34.719v33.975l63.42-34.719zM392.637 42.51l63.416 34.719v33.975l-63.416-34.719zM319.286 36.695l-63.351-34.69-63.359 34.69v-33.971l63.42-34.661 63.29 34.661z" />
<glyph unicode="&#xe616;" d="M205.198 240.751l-15.4 32.692c40.781 19.193 95.654 22.051 139.69 7.301l-11.469-34.25c-35.695 11.928-79.987 9.688-112.82-5.744zM267.853 447.665c17.589 0 31.894-14.298 31.894-31.895 0-17.582-14.309-31.88-31.894-31.88-17.578 0-31.883 14.298-31.883 31.88 0 17.597 14.305 31.895 31.883 31.895zM267.853 480c-35.46 0-64.219-28.755-64.219-64.23 0-35.46 28.755-64.215 64.219-64.215 35.449 0 64.197 28.752 64.197 64.215 0.018 35.475-28.73 64.23-64.197 64.23v0zM465.89 251.989l-13.019 1.495c-4.245 6.951-9.107 13.644-14.428 20.053l6.694 31.728-31.046 75.851-81.966-22.603-11.368-16.654c-17.336 3.804-35.146 5.722-53.135 5.722-106.596 0-194.643-66.888-206.289-152.634-0.798 0.054-1.431 0.094-1.77 0.112-11.065 0.802-21.754 8.937-20.848 25.305 0.828 13.991 11.867 19.76 21.96 20.472l-2.612 36.030c-30.948-2.243-53.728-24.612-55.429-54.462-1.933-33.751 21.396-61.003 54.277-63.373 0.679-0.068 2.164-0.151 4.042-0.289 4.751-40.416 26.483-78.022 61.654-106.358l-0.9-2.070c-12.885-29.807 0.828-64.519 30.619-77.443 7.452-3.237 15.31-4.87 23.405-4.87 23.492 0 44.708 13.923 54.053 35.478l1.178 2.724c24.113-3.551 49.23-3.551 73.358 0l1.182-2.724c9.338-21.555 30.547-35.478 54.038-35.478 8.052 0 15.949 1.633 23.401 4.87 29.781 12.9 43.512 47.641 30.63 77.443l-0.885 2.081c16.271 13.156 29.951 28.524 40.214 45.231l13.063 1.499c25.32 1.026 43.57 32.834 43.57 76.414-0.065 43.616-18.315 75.424-43.642 76.447zM462.986 135.195l-32.74-3.757-4.458-8.377c-10.093-18.987-25.887-36.2-45.658-49.899l-12.199-8.421 12.423-28.777c4.985-11.517-0.318-24.926-11.817-29.922-2.879-1.232-5.946-1.882-9.017-1.882-9.107 0-17.286 5.379-20.891 13.742l-12.702 29.351-14.425-3.053c-28.488-5.946-59.269-5.946-87.728 0l-14.428 3.063-12.705-29.362c-3.619-8.356-11.816-13.742-20.905-13.742-3.096 0-6.119 0.679-9.017 1.885-11.517 4.989-16.823 18.406-11.838 29.914l12.474 28.777-12.207 8.432c-37.523 25.919-59.042 63.247-59.042 102.428 0 74.926 76.949 135.886 171.515 135.886 19.182 0 38.050-2.543 56.221-7.535l12.419-3.432 18.261 26.721 38.285 10.559 14.695-35.915-8.204-38.909 6.397-6.864c8.067-8.655 14.84-18.109 20.099-27.996l4.447-8.356 32.74-3.757c3.168-2.944 10.368-16.35 10.368-40.358-0.007-24.088-7.203-37.49-10.368-40.445z" />
<glyph unicode="&#xe617;" d="M187.761 415.559l29.43-20.609-100.603-143.661-29.43 20.609 100.603 143.66zM191.955 115.157c0-16.773-13.597-30.37-30.37-30.37s-30.37 13.597-30.37 30.37c0 16.773 13.597 30.37 30.37 30.37s30.37-13.597 30.37-30.37zM268.297 115.157c0-16.773-13.597-30.37-30.37-30.37s-30.37 13.597-30.37 30.37c0 16.773 13.597 30.37 30.37 30.37s30.37-13.597 30.37-30.37zM151.542 189.252c0-16.773-13.597-30.37-30.37-30.37s-30.37 13.597-30.37 30.37c0 16.773 13.597 30.37 30.37 30.37s30.37-13.597 30.37-30.37zM229.383 189.252c0-16.777-13.601-30.377-30.377-30.377s-30.377 13.601-30.377 30.377c0 16.777 13.601 30.377 30.377 30.377s30.377-13.601 30.377-30.377zM400.625 354.142c-61.509 0-111.375-49.899-111.375-111.397 0-61.531 49.863-111.379 111.375-111.379 61.517 0 111.375 49.863 111.375 111.379s-49.859 111.397-111.375 111.397zM450.95 214.322l-22.202-22.206-28.072 28.072-28.083-28.112-22.206 22.224 28.083 28.072-28.484 28.466 22.224 22.224 28.466-28.466 28.433 28.437 22.224-22.224-28.437-28.437 28.055-28.050zM400.625 113.416c-7.601 0-14.977 0.687-22.18 1.94-7.76-18.741-15.053-36.2-19.536-47.038h-241.962c-12.261 29.423-45.13 108.634-53.041 127.769-10.801 26.274-20.432 41.442-45.683 56.326l-18.221-30.97c16.744-9.837 21.855-17.592 30.684-39.014 9.739-23.709 57.654-138.946 57.654-138.946l4.591-11.068h289.961l4.599 11.068c0 0 14.678 35.423 29.438 70.985-5.303-0.661-10.758-1.051-16.303-1.051zM332.931 352.906l-43.064 62.575-29.589-20.352 44.903-65.212c8.096 8.89 17.445 16.636 27.751 22.989zM273.433 219.416c-15.158-1.731-26.956-14.526-26.956-30.178 0-16.743 13.605-30.37 30.374-30.37 7.471 0 14.36 2.771 19.644 7.279-11.419 15.486-19.464 33.603-23.062 53.269zM315.548 145.458c-0.43 0.018-0.841 0.098-1.279 0.098-16.743 0-30.363-13.623-30.363-30.399 0-16.743 13.623-30.37 30.363-30.37 16.784 0 30.402 13.601 30.402 30.37 0 4.411-0.961 8.591-2.666 12.369-9.584 4.895-18.449 10.924-26.457 17.932z" />
<glyph unicode="&#xe618;" d="M105.202 208.969h25.536c0-1.937 0.304-3.743 0.925-5.455 1.463-4.017 5.527-6.033 12.189-6.033 2.706 0 5.141 0.585 7.308 1.731 2.16 1.156 3.237 3.103 3.237 5.801 0 2.002-1.091 3.536-3.237 4.631-2.182 1.058-7.059 2.716-14.652 4.88-8.742 2.486-14.677 4.62-17.838 6.491-6.835 3.963-10.213 9.782-10.213 17.535 0 8.956 3.233 15.783 9.689 20.396 6.484 4.617 14.396 6.998 23.73 6.998 9.901 0 18.066-2.182 24.518-6.531 6.398-4.303 9.782-11.184 10.065-20.537h-24.156c0.383 2.857-0.621 5.054-3.017 6.611-2.012 1.416-4.523 2.084-7.539 2.084-2.351 0-4.433-0.405-6.329-1.228-1.882-0.827-2.839-2.258-2.839-4.342 0.076-1.102 0.528-2.070 1.333-2.962 0.813-0.888 2.182-1.702 4.125-2.439 1.933-0.74 3.595-1.297 5.025-1.684 1.387-0.387 3.671-0.979 6.839-1.741 3.172-0.769 5.418-1.315 6.737-1.622 3.388-0.979 6.304-2.034 8.703-3.078 2.399-1.041 4.819-2.486 7.257-4.292s4.248-4.126 5.494-6.871c1.254-2.785 1.882-6 1.882-9.635 0-5.195-1.131-9.711-3.313-13.522-2.203-3.84-5.195-6.791-8.956-8.88-3.721-2.084-7.778-3.637-12.116-4.639-4.335-0.997-8.977-1.514-13.923-1.514-2.319 0-4.79 0.177-7.427 0.527-2.633 0.375-5.744 1.142-9.342 2.38-3.598 1.221-6.784 2.879-9.573 4.935-2.785 2.045-5.169 4.967-7.145 8.76-1.987 3.804-2.977 8.211-2.977 13.24zM177.386 181.116l30.518 82.859h24.959l30.178-82.863h-26.428l-3.5 11.841h-26.346l-3.703-11.838h-25.678zM212.318 210.71h15.663l-7.423 25.514h-0.245l-7.994-25.514zM265.815 181.116v82.859h25.533v-61.628h36.663v-21.238l-62.195 0.007zM336.016 181.116v82.859h68.579v-21.223h-43.050v-10.314h39.105v-19.735h-39.105v-10.328h44.329v-21.238l-69.858-0.022zM256.011 433.389l38.82-39.271 52.041 18.565 11.163-32.501 6.769-19.731 54.916-5.867-4.043-34.149-2.457-20.703 46.897-29.109-18.438-29.023-11.213-17.585 11.213-17.6 18.438-28.976-46.925-29.135 2.486-20.732 4.043-34.101-54.916-5.877-6.769-19.721-11.163-32.494-52.041 18.568-38.82-39.286-38.838 39.286-52.052-18.568-17.928 52.214-20.7 2.189-34.181 3.685 4.010 34.101 2.486 20.732-46.922 29.135 29.651 46.576-11.195 17.585-18.453 29.022 46.922 29.109-2.486 20.703-4.038 34.149 54.909 5.867 17.929 52.233 52.052-18.565 14.678 14.829 24.157 24.445zM256.011 480l-47.464-48.024-63.605 22.675-21.903-63.858-67.156-7.152 7.94-67.058-57.358-35.593 36.225-56.972-36.222-56.957 57.377-35.597-7.973-67.058 67.134-7.196 21.924-63.853 63.601 22.654 47.464-48.038 47.464 48.038 63.597-22.654 21.924 63.853 67.137 7.196-7.966 67.058 57.373 35.597-36.233 56.965 36.233 56.972-57.373 35.594 7.966 67.058-67.127 7.149-21.924 63.879-63.597-22.686-47.461 48.010z" />
<glyph unicode="&#xe619;" d="M158.684 147.633l11.834 11.817c0.896-0.889 1.886-1.564 2.988-2.081 2.522-1.203 5.364-0.228 8.45 2.836 1.225 1.279 2.113 2.666 2.583 4.194 0.466 1.543 0.076 2.94-1.214 4.202-0.903 0.932-2.153 1.142-3.645 0.65-1.536-0.513-4.523-2.026-9.046-4.526-5.195-2.904-8.966-4.663-11.299-5.274-4.993-1.289-9.273-0.199-12.871 3.392-4.14 4.14-5.794 8.807-4.975 13.991 0.838 5.119 3.432 9.884 7.774 14.226 4.591 4.591 9.385 7.366 14.374 8.356 4.96 0.968 9.725-0.664 14.215-4.855l-11.213-11.213c-1.131 1.517-2.633 2.067-4.44 1.68-1.583-0.231-3.085-1.13-4.469-2.486-1.051-1.102-1.861-2.243-2.333-3.536-0.528-1.243-0.25-2.334 0.686-3.316 0.535-0.455 1.2-0.723 1.994-0.744 0.823-0.039 1.799 0.235 3.078 0.817 1.243 0.527 2.265 1.055 3.085 1.543 0.827 0.452 2.164 1.243 3.988 2.334 1.825 1.13 3.085 1.882 3.84 2.334 2.034 1.12 3.84 1.998 5.433 2.634 1.596 0.636 3.388 1.073 5.353 1.394 2.008 0.26 3.894 0.076 5.762-0.679 1.882-0.687 3.656-1.882 5.343-3.601 2.41-2.399 3.966-5.007 4.739-7.785 0.751-2.81 0.744-5.581-0.025-8.262-0.773-2.695-1.933-5.317-3.482-7.767-1.539-2.493-3.46-4.863-5.748-7.178-1.073-1.055-2.333-2.146-3.689-3.183-1.376-1.055-3.201-2.142-5.426-3.226-2.239-1.13-4.48-1.846-6.701-2.182-2.232-0.361-4.721-0.076-7.369 0.74-2.742 0.841-5.242 2.428-7.576 4.757zM205.076 168.191l-24.308 52.608 11.571 11.564 52.457-24.438-12.272-12.268-7.106 3.869-12.218-12.25 3.764-7.207-11.888-11.877zM207.55 198.124l7.264 7.269-15.277 8.396-0.079-0.105 8.092-15.559zM246.088 209.214l-38.429 38.444 11.841 11.838 28.546-28.585 17.007 17.007 9.858-9.833-28.824-28.87zM278.654 241.774l-38.436 38.433 31.836 31.837 9.855-9.858-20.006-19.952 4.786-4.772 18.138 18.138 9.128-9.143-18.135-18.145 4.747-4.747 20.558 20.548 9.858-9.837-32.332-32.501zM469.959 378.653c-3.652 3.666-7.423 6.914-11.213 10.154l-2.561-44.329c22.022-26.964 28.426-55.162 18.507-65.096-2.94-2.969-7.553-4.458-13.68-4.458-18.041 0-42.428 12.774-62.192 32.541-11.26 11.227-19.562 23.166-25.063 34.3 8.533 10.762 7.897 26.447-2.095 36.399-10.711 10.711-28.072 10.704-38.758 0-10.707-10.736-10.762-28.105 0-38.794 2.486-2.486 5.343-4.393 8.432-5.722 6.972-16.784 18.427-33.946 34.048-49.588 26.454-26.476 58.461-42.233 85.601-42.233 14.977 0 27.837 4.892 37.082 14.121 26.515 26.533 14.172 80.421-28.105 122.704zM394.888 247.189c-1.654-3.309-3.645-6.355-5.795-8.493l-190.882-190.903-154.042 154.049 190.889 190.889c4.851 4.815 14.316 9.193 21.14 9.779l131.215 10.639c11.43-0.242 20.916-9.645 21.198-21.064l-4.877-65.555c2.146-2.514 4.371-4.981 6.704-7.373 7.543-7.539 15.364-13.471 22.7-17.839l6.56 88.429 0.076 1.546-0.039 1.575c-0.723 28.358-23.474 50.954-51.853 51.517l-1.572 0.036-1.517-0.079-131.201-10.653c-14.226-1.156-30.612-8.727-40.716-18.828l-212.878-213.019 198.222-198.226 212.994 212.994c4.469 4.465 8.377 10.184 11.517 16.375-9.37 3.591-18.716 8.359-27.845 14.204z" />
<glyph unicode="&#xe61a;" d="M365.103 250.010v111.112c0 69.992-44.859 118.879-109.099 118.879-64.237 0-109.096-48.88-109.096-118.879v-111.112h41.233v111.112c0 38.646 20.999 77.643 67.863 77.643 46.886 0 67.863-38.989 67.863-77.643v-111.112h41.236zM323.867 361.121v-40.911h41.236v40.911c0 0.109-0.011 0.213-0.018 0.329h-41.229c0-0.097 0.011-0.22 0.011-0.329zM188.14 320.211v40.911c0 0.109 0.011 0.26 0.011 0.329h-41.229c-0.007-0.105-0.014-0.213-0.014-0.329v-40.911h41.233zM303.251 361.121c0 0.109-0.007 0.304-0.007 0.329h-94.48c0-0.076-0.004-0.228-0.004-0.329v-40.911h94.491v40.911zM452.138 361.443h-66.426c0-0.108 0.007-0.213 0.007-0.325v-40.907h28.072l22.788-310.981h-361.133l22.794 310.981h28.073v40.911c0 0.108 0.004 0.26 0.004 0.329h-66.433l-28.799-393.45h449.826l-28.773 393.443z" />
<glyph unicode="&#xe61b;" d="M125.455 253.319l-31.672 22.156 108.19 154.659 31.672-22.156-108.19-154.66zM311.823 430.022l106.445-154.627-31.865-21.924-106.401 154.649zM173.845 139.555c18.059 0 32.689-14.634 32.689-32.668 0-18.029-14.631-32.671-32.689-32.671-18.037 0-32.664 14.642-32.664 32.671 0 18.034 14.627 32.668 32.664 32.668zM338.108 139.555c18.077 0 32.707-14.634 32.707-32.668 0-18.029-14.63-32.671-32.707-32.671-18.034 0-32.664 14.642-32.664 32.671 0 18.034 14.63 32.668 32.664 32.668zM255.978 139.555c18.055 0 32.685-14.634 32.685-32.668 0-18.029-14.63-32.671-32.685-32.671-18.037 0-32.664 14.642-32.664 32.671 0 18.034 14.627 32.668 32.664 32.668zM130.363 219.279c18.059 0 32.685-14.678 32.685-32.671 0-18.029-14.631-32.664-32.685-32.664s-32.664 14.634-32.664 32.664c0 18.037 14.609 32.671 32.664 32.671zM330.529 186.611c0-18.043-14.627-32.671-32.671-32.671s-32.671 14.627-32.671 32.671c0 18.043 14.627 32.671 32.671 32.671s32.671-14.627 32.671-32.671zM381.612 219.279c17.993 0 32.668-14.678 32.668-32.671 0-18.029-14.674-32.664-32.668-32.664-18.034 0-32.664 14.634-32.664 32.664 0 18.037 14.63 32.671 32.664 32.671zM214.121 219.282c18.034 0 32.667-14.678 32.667-32.675 0-18.034-14.634-32.668-32.667-32.668-18.055 0-32.692 14.634-32.692 32.668 0 18.041 14.637 32.675 32.692 32.675zM411.964 17.83h-311.954l-4.931 11.968c0 0-51.564 124.052-62.026 149.48-9.576 23.062-14.999 31.385-33.039 41.973l19.645 33.332c27.166-16.021 37.49-32.328 49.144-60.584 8.504-20.659 43.877-105.827 57.044-137.501h260.385c13.175 31.685 48.548 116.877 57.026 137.501 11.664 28.238 21.996 44.592 49.158 60.584l19.623-33.339c-18.019-10.613-23.499-18.915-33.007-41.973-10.466-25.454-62.091-149.483-62.091-149.483l-4.978-11.957z" />
<glyph unicode="&#xe61c;" d="M396.483 190.952h-107.435v-107.435h-66.113v107.435h-107.434v66.113h107.434v107.435h66.113v-107.435h107.435v-66.113zM512 224.008c0-141.384-114.608-255.992-255.991-255.992-141.384-0.017-256.009 114.608-256.009 255.992s114.624 255.992 255.992 255.992c141.4 0 256.009-114.625 256.009-255.992zM495.654 224.008c0 129.351-103.071 234.835-231.398 239.249-2.777 0.082-5.488 0.413-8.264 0.413-2.793 0-5.504-0.331-8.264-0.413-128.31-4.413-231.398-109.897-231.398-239.249s103.088-234.835 231.398-239.249c2.76-0.099 5.471-0.413 8.264-0.413 2.777 0 5.488 0.33 8.264 0.413 128.327 4.413 231.398 109.897 231.398 239.249z" />
</font>
</defs>
</svg>
